<svg xmlns="http://www.w3.org/2000/svg" viewBox="0 0 241.24 61.45"><defs><style>.cls-1{fill:#002155;}</style></defs><g id="Layer_2" data-name="Layer 2"><g id="Layer_1-2" data-name="Layer 1"><path class="cls-1" d="M227.09,27l14.15-10.61H223.67L218.49,0l-5.3,16.37h-17.5L210,27,204.41,43.8l14.08-10.37L232.58,43.8ZM205.63,60.3a52.86,52.86,0,0,0,8.48-19.42s-6.47,6.94-12,13.43q-2.82,2.94-5.54,6Zm10.61,0A90.05,90.05,0,0,0,219.71,39s-7,14.56-9.82,20l-.7,1.34Zm8.7,0a160,160,0,0,0-2.11-19.46s-2.74,11.59-3.62,19.46ZM64.48,26.53a9.82,9.82,0,0,1-1,4.42c-1.18,2.41-3.64,3.6-7.38,3.6-1.42,0-2.38,0-2.85-.06V25.94c0-1.84,0-3.85.13-6a27.8,27.8,0,0,1,4-.25Q64.47,19.68,64.48,26.53ZM53.23,37.89c1.06,0,2-.08,2.82-.08q9.77,0,9.76,9.3a10.77,10.77,0,0,1-2.19,7.18A8.42,8.42,0,0,1,56.92,57a23.05,23.05,0,0,1-3.56-.21c-.09-1.52-.13-3-.13-4.56ZM73.83,25a8.28,8.28,0,0,0-1.42-4.78c-1.79-2.62-5.58-3.93-11.34-3.93q-1.89,0-4.62.12-3.44.16-7.71.16c-4.49,0-7.64-.06-9.48-.19l-.31.29v2.1l.31.31c2.1.13,3.31.23,3.63.31a1.35,1.35,0,0,1,1,1.15,67.19,67.19,0,0,1,.41,9.6V45.86l-.1,7a15.29,15.29,0,0,1-.34,4.11c-.7,1.54-2.62,1.07-3.79.32-.91-.61-2.79-3.08-5.6-7.42l-4.77-7.34c-1.13-1.73-2.23-3.49-3.29-5.26q9.48-3.54,9.49-12a10.45,10.45,0,0,0-.56-3.59,7.4,7.4,0,0,0-4.53-4.4,23.91,23.91,0,0,0-7.87-1c-1.54,0-3.88.06-7,.19-1.56.06-3.62.09-6.13.09q-6.51,0-9.54-.19L0,16.68v2.1l.31.31c2.1.13,3.31.23,3.62.31A1.35,1.35,0,0,1,5,20.55a67.74,67.74,0,0,1,.4,9.6V46.54A67.92,67.92,0,0,1,5,56.15a1.33,1.33,0,0,1-1,1.14,33,33,0,0,1-3.63.32l-.31.3V60l.31.28q2.87-.18,9.54-.18,6.44,0,9.54.18l.28-.32V57.91l-.31-.3a31.74,31.74,0,0,1-3.62-.32,1.35,1.35,0,0,1-1.06-1.14,69.66,69.66,0,0,1-.4-9.61V30.34c0-4.87.1-8.33.3-10.35a17.66,17.66,0,0,1,3-.25,13.17,13.17,0,0,1,5.41.88c2.6,1.21,3.9,3.57,3.9,7.06a9.68,9.68,0,0,1-1.33,5.17,8.22,8.22,0,0,1-2.91,3,9.91,9.91,0,0,1-4.77,1l-1.05,0-.34,1a9.22,9.22,0,0,1,1.83,1.9L21.74,45l7.69,12.83a9.08,9.08,0,0,1,1.18,2.48c2.29-.12,4-.18,5-.18H47.72c3.49.07,7,.18,10.47.18a19.19,19.19,0,0,0,9.57-2.11c5-2.84,7.53-6.87,7.53-12q0-9.81-12.77-10.38A36.43,36.43,0,0,0,67,34.43a12,12,0,0,0,3.4-2.08A9.26,9.26,0,0,0,73.83,25Zm31.3-4.83.4-3.53-.3-.26q-16.65.2-20.89.19-6.57,0-9.54-.19l-.31.29v2.1l.31.31c2.1.13,3.31.23,3.63.31a1.35,1.35,0,0,1,1,1.15,67.48,67.48,0,0,1,.41,9.6V46.54a67.85,67.85,0,0,1-.41,9.61,1.33,1.33,0,0,1-1,1.14,33,33,0,0,1-3.63.32l-.31.3V60l.31.28c3.14-.14,5.59-.2,7.37-.18l12.46.18L95,60V57.92l-.31-.31c-2.81-.17-4.29-.28-4.43-.32a1.35,1.35,0,0,1-1.06-1.14,71.81,71.81,0,0,1-.4-9.61V39.18c1.12-.07,2.39-.1,3.81-.1,1.18,0,2.38.05,3.6.14,1.77.15,2.84.59,3.19,1.31a13.69,13.69,0,0,1,.27,3.82l.32.3H102l.31-.27c-.08-2.29-.12-4.57-.12-6.86,0-1.91,0-4,.12-6.34l-.31-.32h-1.92l-.31.32c-.06,2.23-.24,3.6-.56,4.08a1.22,1.22,0,0,1-1.11.46c-2.86.11-4.8.15-5.86.13l-3.5-.09V31.58c0-5.46.12-9.23.34-11.35,1.82-.12,3.15-.18,4-.18q7.94,0,8.65,1c.28.39.45,2,.49,4.76l.31.31h1.8l.31-.34.19-2.47C105,22,105.05,21,105.13,20.18ZM114,37q0-8.18,4.27-13t11.8-4.76q7.32,0,11.19,4.36a45.53,45.53,0,0,1,.34,5.21l.31.33h1.82l.29-.31a50.46,50.46,0,0,1,1.3-10l-.4-.47a41.39,41.39,0,0,0-14.85-2.76q-12,0-18.86,6.24-6.76,6-6.76,16.2a25.18,25.18,0,0,0,2.76,11.67q5.94,11.67,22.12,11.66A29.81,29.81,0,0,0,144,57.85l1.43-3.16-.79-.71a25.31,25.31,0,0,1-12.11,3.2q-6.81,0-10.88-3.17Q114,48.1,114,37Zm78.53-18.25V16.7l-.31-.31q-6.06.2-8.21.19c-1.9,0-3.74-.06-5.54-.19l-.32.31v2.08l.32.31a18.68,18.68,0,0,1,3.81.46,1.93,1.93,0,0,1,1.09,1,14.36,14.36,0,0,1,.36,3.63c.05,2,.07,5.68.07,11.08v6.45a46.06,46.06,0,0,1-.29,5.14,15.19,15.19,0,0,1-.86,4,7.48,7.48,0,0,1-2,2.57c-2,1.78-4.84,2.67-8.46,2.67q-8.28,0-10.39-5.21-1-2.62-1.05-14.35V30.15a67.19,67.19,0,0,1,.41-9.6,1.35,1.35,0,0,1,1.05-1.15c.31-.08,1.52-.18,3.62-.31l.32-.31V16.7l-.32-.31q-2.81.2-9.51.2c-4.37,0-7.56-.07-9.53-.2l-.32.31v2.08l.32.31c2.1.13,3.3.23,3.61.31a1.36,1.36,0,0,1,1.06,1.15,71.09,71.09,0,0,1,.4,9.6v8q0,11.37.74,14.06a10.71,10.71,0,0,0,5,6.51q4.55,2.7,12.67,2.7,8.9,0,13.69-5.21,3.63-3.93,3.63-13.14V33.53q0-5.09.09-7.78a30.86,30.86,0,0,1,.37-4.7c.31-1.3,1.68-2,4.12-2Z"/></g></g></svg>