<?xml version="1.0" encoding="UTF-8" standalone="no"?>
<!DOCTYPE svg PUBLIC "-//W3C//DTD SVG 1.1//EN" "http://www.w3.org/Graphics/SVG/1.1/DTD/svg11.dtd">
<svg width="100%" height="100%" viewBox="0 0 1157 1126" version="1.1" xmlns="http://www.w3.org/2000/svg" xmlns:xlink="http://www.w3.org/1999/xlink" xml:space="preserve" xmlns:serif="http://www.serif.com/" style="fill-rule:evenodd;clip-rule:evenodd;stroke-linejoin:round;stroke-miterlimit:2;">
    <path d="M1045.66,288.59L1044.72,290.31L1045.03,290.22L1045.66,288.59Z" style="fill:rgb(130,132,135);fill-rule:nonzero;"/>
    <path d="M1045.66,289.59L1044.72,291.31L1045.03,291.22L1045.66,289.59Z" style="fill:rgb(130,132,135);fill-rule:nonzero;"/>
    <path d="M1153.44,579.13L1155.84,578.09L1156.03,575.78L1155.94,574.16L1154.91,572.34L1153.19,571.88L1152.19,570.22L1153.75,568.47L1154.47,566.84L1153.75,565.06L1154.44,562.94L1154.59,562.5L1150.19,562.5L1149.94,562.69L1149.81,562.5L1148.28,560.91L1148.69,557.94L1149.31,555.97L1147.56,555.19L1147.59,553.25L1147.41,552.53L1147.1,552.53L1143.81,551.44L1142.91,549.72L1141.59,547.97L1142.19,546.28L1142.97,543.91L1144.75,542.03L1142.91,541.97L1141.75,539.13L1139.75,536.94L1140.78,534.72L1138.25,533.28L1135.81,531.69L1136.19,529.91L1138.06,528.75L1138.88,526.88L1136.59,526.47L1134.88,525.84L1132.44,525.5L1131.41,523.84L1129.72,522.59L1129.75,520.88L1128.22,518.72L1128.03,517.09L1129.84,515.5L1129.94,513.66L1129.5,511.84L1130.25,510.22L1131.06,508.53L1130.28,505.63L1129.19,503.63L1128.13,501.94L1129.13,500.16L1128.22,498.25L1126.66,496.41L1125.13,494.63L1124.97,492.84L1124.13,491.16L1124.19,489.44L1122.41,488.81L1121.47,486.91L1119.72,486.78L1119.25,485.13L1117.63,484.31L1115.75,483.31L1114.13,480.41L1113.16,478.34L1111.72,476.56L1110,475.63L1109.97,472.94L1108.75,310.63L1107.56,308.47L1105.91,309.09L1103.81,309.97L1102.19,311.47L1101.69,309.56L1099.94,309.03L1098.22,307.44L1096.44,308.47L1094.69,308.97L1096.66,309.28L1096.81,311.06L1094.94,310.38L1093.31,311.56L1091.66,311L1092.22,309.28L1092.59,307.59L1090.81,308.5L1089.78,310.56L1088.13,310.72L1088.97,308.78L1087.22,309.34L1086.25,311.69L1084.41,311.19L1082.69,310.66L1081.91,312.34L1080.13,312.41L1078.38,310.78L1079.09,309.16L1077.34,309.72L1075.88,307.44L1074.03,306.69L1072.41,305.72L1073.19,303.91L1074.22,301.97L1072.5,302.53L1070.44,303.84L1068.69,304.03L1066.66,304.25L1068.06,302.53L1066.38,302.44L1063.69,302.56L1064.41,300.47L1062.03,301.19L1064.31,299.25L1062.59,299.47L1061.5,297.59L1061.59,299.41L1059.84,299.09L1058.16,298.72L1056.56,299.88L1054.81,298.91L1056.91,298.72L1057.53,296.31L1055.69,296.75L1053.44,297.56L1050.47,297.13L1051.56,295.25L1049.13,294.72L1050.69,296.47L1048.94,296.81L1047.34,295L1047.88,293.25L1046.03,293.06L1044.28,292.16L1044.72,291.31L1042.22,292.19L1042.19,290.53L1040.56,289.78L1040.81,291.59L1038.94,291.75L1036.69,290.72L1037.47,288.97L1035.72,289.03L1034.09,288.19L1032.56,286.38L1033.19,284.47L1032.13,282.44L1032.41,284.44L1030.25,284.47L1030.59,282.16L1028.78,281.44L1028.06,278.81L1026.31,279.81L1024.28,279.25L1021.34,278.59L1020.84,276.72L1020.38,274.59L1018.72,274.25L1018.41,276.91L1016.81,275.25L1017.75,273.31L1015.94,274.22L1014.06,273.09L1014.97,271.47L1013.38,271.13L1010.53,269.84L1007.53,268.59L1005.13,269.53L1003.56,271.16L1003.75,274.06L1002.56,276.06L1000.84,273.88L1001.16,275.81L999.72,277.66L997.97,276.72L995.91,277.47L993.72,278.28L991.84,278.09L989.97,278.53L987.97,277.91L985.69,277.88L984.69,276.19L983.06,277.25L981.06,277.13L980.78,275.03L978.75,276.75L977.09,275.88L977.28,273.56L976.53,271.59L974.81,271.31L973.03,270.31L971.34,271.88L969.91,274.28L967.94,273.75L965.81,275.38L963.94,276.28L962.22,275.75L960,275.13L958.5,276.78L959.22,278.47L958.88,280.13L956.72,279.97L955,278.84L953.31,279.75L952.5,281.69L950.88,280.94L949.25,279.94L946.78,278.22L943.53,276.5L942.13,279.13L939.81,279.5L938,278.81L936.59,280.69L934.88,279.5L933.25,281.5L931.16,280.81L928.63,280.53L928.81,282.13L926.31,281.13L924.41,281.44L923.53,283.38L921.78,284.28L923.47,284.13L923.22,286.78L921.84,289.53L920.13,290.38L917.38,290.84L915.09,289.41L913.03,288.47L911.34,289.44L910.59,291.28L910.56,293.47L910.06,295.25L908.25,296.66L906.22,297.25L905.31,295.34L904.5,293.72L902.75,291.88L901.16,289.81L899.5,287.56L897.88,287.41L896.22,287.91L893.44,288.22L892.06,286.59L891.94,284.63L890.69,282.81L889.03,283.31L887.09,283.34L885.34,282.09L882.16,279.81L884.94,277.41L885.34,275.25L882.22,275.38L878.25,273.5L877.34,276.47L877.25,278.72L875.5,281.66L873.69,282.16L871.84,282.63L869.69,282.22L869.09,280.25L867.59,278.06L865.97,277.69L863.59,278.13L863.44,279.75L861.78,280.09L859.78,278.16L858.66,275.16L858.59,273.38L858.19,270.69L856.16,268.53L853.72,270.06L851.88,271L849.94,269.66L849.91,271.41L850.81,274.28L850.81,276L849.72,277.84L847.59,280.44L845.41,281.19L843.59,278.97L841.78,280.97L844.91,281.88L845.22,283.5L841.31,284.91L841.16,286.63L842,289.41L841.78,291.56L840.03,293.69L837.69,294L835.88,293.38L834.22,291.81L833.59,290.16L832.94,288.53L832.31,286.91L831.38,285.19L832.22,282.09L834.78,281.09L834.5,279.06L833.94,277L833.03,274.63L831.31,273.28L829.5,273.25L827.88,274.44L827.53,276.84L825.97,279.03L824.13,277.94L822.06,276.16L821.78,278.47L820.03,278.72L819.88,277L819.56,278.94L817.88,282.19L815.44,283.28L813.66,283.38L811.88,283.38L809.56,282.34L808.81,280.13L809.69,277.84L809.75,276.19L808.63,274.25L805.41,272.72L802.41,274.19L799.53,274.63L797.56,274.38L796.88,272.66L797.06,270.84L797.53,269.13L795.81,267.59L793.63,266.19L790.34,265.13L788.41,265.94L787.44,268.09L785.94,270.09L784.16,270.84L782.28,271.53L781.84,273.38L780.22,273.38L780.69,275.38L778.84,276.34L777.16,278.06L775.13,279.34L773.34,280.09L771.19,279.38L769.31,278.25L767.19,277.09L765.16,277.03L763.34,275.88L763.41,273.47L765.16,273.25L765.31,270.75L763.66,270.25L765.19,268.59L765.53,265.25L763.88,263.66L762.19,264.34L758.94,264.94L756.5,264.66L754.09,263.97L753.5,262.19L752.03,260.53L753.69,259.56L751.28,257.63L750.72,255.63L752.19,253.84L753.25,251.88L752.28,249.94L751.75,247.94L749.31,248.94L746.34,252.16L742.94,251.44L740.91,250L738.78,250.53L736.69,250.41L734.94,250L732.72,248.25L728.97,247.75L727.31,249.56L726.31,251.41L725.28,254.44L723.63,255.19L721.81,256.47L719.84,257.28L717.81,256.81L715.84,255.13L714.13,252.88L712.03,250.16L709.94,248.22L707.06,247.69L703.63,247.5L701.13,249.56L699.44,249.88L697.63,249.94L695.63,250.97L693.94,249.81L691.25,249.13L689.56,247.5L687.63,247.69L684.91,248.41L683.22,246.44L681.28,245.47L679.63,243.88L676.22,242.97L674.97,241.28L673.09,242.09L671.13,242.66L669.38,243.28L667.72,242.38L665.44,242.19L663.75,242.72L662.13,242.75L661.78,241.03L659.75,242.31L656.56,241.56L656.56,239.94L656,237.88L655.97,236.09L655.03,234.25L654.81,232.63L655.16,230.5L655.06,228.47L653.28,228.53L652.66,226.88L650.84,224.88L649.13,223.59L649.31,221.88L647.34,220.34L647.09,220.41L645.13,221.03L643.31,218.78L641.66,216.06L639.72,215.94L638.66,218.59L638.97,220.53L638.44,222.19L636.81,224.31L634.69,225L632.97,224.06L631.56,222.44L629.31,221L627.56,220.44L625.59,220.56L623.75,220.13L621.81,221.16L621.78,222.88L620.44,224.63L618.31,224.75L616.19,223.81L614.16,224.31L612.06,224.25L610.31,222.53L609.25,220.84L606.84,219.72L605.22,217.59L603.38,216.25L601.44,213.44L599.91,211.38L598.13,210.16L596.75,208.47L595.34,206.44L593.69,205.22L590.97,203.28L589.25,203.09L587.69,204.81L585.16,205L585.16,0.31L541.56,0.31L541.56,0.06L499.13,0.06L488.38,0.16L398.25,0L317.22,0.03L317.31,52.91L317.19,71.38L317.28,74.91L317.09,145.34L317.16,157.06L317.03,231.31L317.09,262.06L315.22,369.88L315.25,475.5L122.66,475.53L45.59,475.28L2.06,476.09L0.41,478L2.09,479.28L2.44,480.94L1.66,482.75L2.75,484L0.81,485.09L0,486.88L0.72,488.81L1.5,490.75L3.63,492.5L4.84,494.34L7.06,495.5L9.44,496.84L10.09,498.63L11.72,500.78L13.53,502.13L15.44,501L18,501.25L20.03,501.88L23.34,504.25L23.84,505.91L25.84,507.59L27.19,511.09L29.91,515.47L30.5,517.44L31.22,519.16L31.91,521.81L34.91,523.97L36.84,528.28L37.38,530.53L39,532.34L41.16,533.13L42.81,535L45,536.28L47.06,536.59L50,539.19L56.22,539.75L60.72,542.66L61.25,545.34L62.66,548.16L65.16,548.78L66.25,550.56L68.16,550.69L69.81,553.22L71.06,555.03L72.63,556.91L74.75,559.84L76.03,561.91L77.5,563.88L79.38,563.81L82.16,566.75L87.78,569.25L89.5,570.81L92.03,573.34L93.19,575.19L93.69,577.44L94.63,579.66L95.09,581.5L96.91,582.84L98.91,584.06L100.5,584.63L101.88,587.28L103.78,589.03L105.56,590.38L107.22,591.75L109.47,592.91L109.94,594.81L109.34,596.56L111.28,597L113.03,597.5L115.03,598.81L116.72,599.41L117.53,601.16L119.25,599.84L120.44,601.59L122.09,602.94L124.06,602.06L125.78,601.72L126.53,603.78L128.34,603.97L129.19,605.72L130.84,605.84L131.34,607.47L133.31,607.59L134.97,608.31L135.63,610.13L137.03,611.88L138.72,612.53L139.44,614.25L141.13,614.09L142.88,614.88L144.56,614.94L145.94,617.34L146.16,618.97L146.47,621.16L148.28,622.34L150,623.19L151.63,623.63L152.84,625.34L153.91,627.47L154.63,629.09L155.25,631L156,632.88L156.47,634.63L156.25,636.28L156.22,638.34L157.03,640.41L157.34,642.03L157.31,643.66L157.63,646.16L159.66,647.47L161.34,648.13L160.34,649.84L161.66,651.66L163.34,652.88L164.16,654.56L165.75,655.13L166.03,657.16L166.69,659.16L169.03,660.13L170.63,662.06L170.94,664.38L171.5,666.22L172.22,668.25L172.25,670L172.06,671.97L171.53,673.59L171.88,675.38L172.28,677.63L171.94,679.44L170.84,681.06L171.09,683.09L171.75,684.84L172,686.5L172.41,688.22L172.44,689.97L173.53,691.63L172.81,693.44L172.94,695.19L174.78,697.31L175.88,699.19L177.31,701.19L178.75,703.13L178.25,704.81L179.88,706.28L180.78,708.22L182.19,709.94L182.94,711.69L183.5,713.59L184.44,715.34L184.78,717.13L184.91,718.97L184.91,720.63L186.53,721.97L187.31,723.59L188.16,725.22L189.88,725.88L191.56,727.13L193,728.78L198.13,733.41L199.22,735.13L200.91,735.91L203.69,737.31L205.38,737.25L207.09,737.66L209.88,739L211.94,739.97L212.5,741.97L214.41,741.75L214.13,743.41L214.31,745.13L216.88,747.47L217.53,749.19L219.03,750.91L220.69,752.09L222.47,753.38L224.22,754.31L226.16,756.06L227.84,757.31L229.53,758.75L231.41,759.56L233.56,760.44L235.94,761L237.78,761.34L239.97,762.44L241.69,762.16L243.38,762.41L245.66,762.78L247.31,763.72L249.25,763.59L250.5,765.22L252.34,765.91L252.16,767.59L252.47,769.25L254.41,768.75L255.5,770.44L256.72,772.16L258.59,773.13L260.25,773.66L261.97,774.19L263.47,775.84L265.09,775.78L267,775.06L268.75,776.69L271.09,776.25L272.94,777.22L274.69,778.06L275.75,779.72L277.53,781.47L279.53,783.53L279.41,785.5L281.22,785.25L282.72,787.03L284.31,788.53L286.13,789.09L287.91,790.03L289.78,790.13L290.28,788.28L292.09,789.09L292.16,790.81L293.91,790.13L293.72,792.19L295.63,792.41L296.31,794.97L297.38,792.94L300.13,794.16L302,793.84L304.03,794.22L306.47,795.47L308.19,794.91L310.63,794.19L310.59,792.5L312.28,789.75L311.66,787.84L313.38,786.19L314.13,784.5L315.25,782.88L317.47,782.28L317.78,780.47L319.63,778.75L320.22,776.84L321.28,775.22L322.59,772.91L324.69,773.63L326.34,772.66L328.06,771.5L329.78,770.41L331.59,769.97L332.5,768.19L330.81,766.56L329.16,765.06L329.47,763.38L330.78,761.53L330.34,759.91L331.06,758.09L332.13,755.31L334.53,754L335.63,751.53L337.34,750.03L336.16,748.41L335.81,746.66L336.44,744.75L337.09,742.81L338.47,741.16L337.88,739.31L338.78,736.59L340.44,735.09L340.5,733.25L341.88,731.28L341.59,729.38L343.25,729.91L343.94,728.22L343.66,725.63L345.34,723.72L346.59,722.06L347.38,720.03L348.22,717.81L348.94,715.59L350.84,714.81L353.56,714.84L355.28,713.53L357.09,713.38L359.44,711.44L360.16,713.44L361.94,712.78L363.78,711.66L363.41,709.75L365.16,709.97L367.63,710.03L369.59,710.38L371.5,710.84L373.38,711.69L375.09,711L375.78,709.06L376.13,707.19L377.09,704.25L378.16,701.97L379.78,701.38L381.5,699.84L384.06,701.22L385.69,700.88L387.31,701.22L388.59,702.91L390.81,703.44L392.94,703.16L393.16,705.22L395.31,706.72L397.06,707.84L398.81,708.81L400.66,708.94L402.56,709.44L404.63,709.56L406.5,707.81L408.47,707.84L410.13,708.34L411.94,706.66L413.06,708.44L414.69,708.06L415.25,709.84L416.81,708.22L419.97,708.66L421.72,707.25L423.31,708.72L424.97,708.91L424.38,707.25L426.06,708.09L426.69,710.19L428.94,709.19L431.13,710.38L432.94,710.91L434.66,712.06L437.06,712.16L438.81,711.09L440.31,712.84L441.88,711.09L443.94,710.72L446.69,710.81L447.09,708.16L449.38,706.88L449.72,709.28L450.38,712.28L452.78,711.75L454.91,709.69L456.94,709.28L457,710.97L458.5,713.19L461.97,712L460.5,713.66L462.13,714.97L462.13,717.09L464.34,719.28L464.75,721.66L466.63,722.56L470.44,723.81L470.56,725.47L469.5,728.91L469.63,730.63L471.47,732.16L472.63,730.13L472.66,728.44L473.41,725.97L475.03,726.59L474.88,728.69L475.03,733.72L474.09,735.81L474.66,737.56L477.06,737.34L480.13,737.56L481.97,739.28L483.72,742.13L485.66,742L487.97,742.81L490.31,743.5L492.09,745.25L493.28,747.13L493.69,749.13L495.41,751.22L495.84,753L497.5,754.13L499.59,755.41L501.59,755.84L503.41,758L505.5,759.56L507.5,760.94L509.03,763.38L511.28,764.72L513.28,765.72L514.94,766.47L516,768.44L516.97,770.28L517.63,771.91L516.84,774.22L518.28,775.94L520.19,777.84L522.66,779.88L524.94,780.88L526.13,782.81L526.69,784.69L526.78,787.47L527.03,789.22L527.59,790.91L528,792.94L528.06,794.94L528.09,796.69L527.81,798.5L528.91,800.19L529.13,801.88L531.09,802.91L533,804.22L533.16,806L534.72,808.56L534.94,810.91L537.06,811.97L538.22,813.75L537.94,816.03L538.22,817.97L539.88,818.94L540.56,820.84L540.56,822.47L540.25,825.22L541.5,828.63L541.56,828.66L543.41,829.81L545.94,830.88L545.69,833L547.31,835.19L550.19,837.38L548.97,840L549.94,842.09L551,843.81L553.28,844.47L555.38,845.19L554.88,846.81L552.81,848L554.28,849.69L555.44,851.41L555.5,853.06L554.41,855.66L555.09,857.53L557.25,860.44L558.44,862.88L559.78,864.72L559.88,866.38L560.25,869.59L561.63,871.75L563.5,873.47L566.03,874.22L566.34,876.47L566.88,878.09L568.84,878.56L571.06,880.44L572.75,880.44L574.66,881.75L577.78,882.91L578.88,885.44L580.31,887.5L581.13,889.84L583.28,890.91L583.78,892.56L584.06,894.28L584.66,896.25L585.5,898.03L587.19,899.31L589.59,899.97L591.16,901.63L590.56,903.56L591.72,905.88L594,907.47L594.53,909.5L593.63,911.38L594.56,913.41L596.13,915.31L596.31,917.97L596.66,919.91L598.88,921.56L599.91,923.25L601.66,922.09L602.31,923.69L603.13,926.13L605.41,926.5L606.53,928.63L608.75,931.44L609.72,933.47L611.69,934.59L613.47,934.22L615.31,935.41L615.25,937.19L617,937.63L619.03,936.47L620.97,936.38L622.41,938.5L622.31,940.22L624.41,938.94L626.06,941.34L627.78,943.38L627.59,945.41L627.28,947.34L627,949.06L626.94,951.38L629.03,951L630.88,952.25L630.5,954.88L629.63,957.5L630.34,960.38L629.88,962.44L629.31,964.44L628.56,966.44L628.44,968.59L626.47,969.66L627.38,971.75L629.16,971.53L630.34,973.25L630.91,976.41L633.44,975.97L634.41,978.84L634.28,980.75L635.16,982.53L635.72,985.25L634.72,987.56L635.28,989.31L635.13,991.25L635.38,993.84L635,995.56L633.59,998.13L634.19,1000.34L634.63,1002.31L636.69,1002.03L637.72,1004.13L640.13,1006.22L638.59,1008L639.09,1009.75L641.47,1011.38L643.56,1012.03L644.94,1013.72L645.38,1018.03L647.09,1018.09L647.09,1017.09L647.28,1017.09L649.63,1019.44L650.19,1022.34L651.94,1025.22L652.16,1029.72L654.88,1031.94L654.78,1035.19L655.63,1039.16L657.59,1042.97L658.53,1049.34L658.59,1051.88L660.63,1052.75L662.84,1053.94L664.06,1055.66L664.88,1057.63L664.66,1059.56L664.28,1061.19L663.28,1062.81L664.5,1064.44L666.06,1066.63L668.47,1066.13L670.47,1064.91L672.97,1066.94L675.56,1066.13L677.28,1066.84L677.16,1068.66L679,1069.13L680,1067.09L681.13,1069.25L683.06,1070.78L684.72,1070.25L687.03,1070.63L688.75,1069.34L690.56,1069.72L691.25,1071.63L691.81,1073.44L693.44,1074.19L695.34,1073.66L696.31,1075.38L695.97,1077.44L698.03,1078.06L699.72,1078.84L698,1079.75L699.66,1080.41L701.66,1081.38L701.78,1083L703.72,1083.59L705.69,1081.88L707.78,1081.75L709.63,1081.28L711.41,1083L712.13,1084.63L713.41,1082.78L714.22,1084.69L716.03,1084.5L717,1086.47L719.19,1087.19L718.97,1085.34L720.75,1084.63L722.59,1085.34L722.25,1087.28L723.94,1088.28L725.94,1090.34L727.88,1091.97L729.84,1091.69L731.59,1092.34L731.84,1093.97L733.13,1096.03L735.13,1097.44L735.78,1095.78L737.97,1096.13L736.16,1097.72L737.88,1098.84L739.47,1100.91L742.63,1101.22L744.44,1102.88L746.22,1101L747.34,1102.84L749,1102.72L750.84,1101.72L753.06,1102.34L754.78,1102.19L754.34,1104.09L756,1103.63L757.94,1104.16L758.5,1101.97L760.31,1102.56L761.94,1102.28L763.56,1102.38L765.69,1101.97L767.44,1101.81L769.19,1102.56L771.34,1101.5L773.56,1101.13L774.63,1103.03L776.72,1102.63L778.34,1102.38L779.97,1103.28L780.53,1104.94L782.16,1103.88L782.56,1105.75L784.72,1105.13L787.41,1104.72L789.06,1105.69L791.13,1104.5L790.63,1106.47L793.03,1105.94L792.5,1107.72L794.25,1107.91L793.59,1109.56L795.28,1110.81L797.16,1112.59L798.88,1113.41L798.13,1115.09L801.03,1115.25L802.78,1117L803.03,1118.81L803.5,1120.53L805.59,1119.19L806.06,1121.13L807.72,1121.56L809.34,1120.78L810.31,1122.53L811.06,1124.41L813.53,1123.88L814.81,1125.72L816.59,1125.44L816.38,1123.69L817.84,1122L817.22,1120.06L816.44,1118.41L818.16,1117.03L820.09,1116.34L821.72,1115.75L823.38,1115.56L825.09,1115.34L825.09,1113.59L827.88,1113.88L829.63,1112.84L831.38,1112.94L833,1112.91L834.75,1112.72L836.5,1113.22L836.56,1111.59L841.44,1111.28L841.19,1103.97L841.59,1101.53L841.16,1099.19L839.94,1097.47L839.72,1093.16L839.13,1087.59L838.44,1082.28L835.69,1068.88L833.22,1058.25L830.63,1047.59L829.69,1045.38L827.31,1038.59L824.56,1027.84L823,1020.34L821.81,1012.03L821.22,1004.5L821,1001.78L821,997.47L821.31,991.25L821.84,984.94L822.22,982.13L823.34,976.41L824.06,973.53L826.84,963.19L827.44,961.41L831.88,950L834.94,942.81L838.44,935.19L845.06,923.59L848.69,919.72L850.84,917.94L853.03,910.38L854.88,907.63L857.5,904.16L860.47,900.38L863.19,897.16L871.81,888.78L881.13,880.78L885.03,877.88L890.78,873.84L900.06,868.81L902.72,867.66L904.5,866.47L907.19,862.75L907.78,860.81L909.31,858.84L911.66,858.28L914.03,856.19L914.81,854.09L916.81,852.66L921.5,849.44L930.88,844.38L937.53,840.97L948.56,835.63L957.13,831.13L959.56,829.75L978.63,817.94L982.16,816.34L988.66,812.06L990.31,812.03L992.38,811.6L994.53,810.78L997.28,809.03L998.34,807.28L1000.03,805.1L1003.38,802.88L1005.63,801L1007.47,799.28L1009.72,796.94L1014.56,791.22L1016.28,789.97L1017.81,786.47L1018.03,784.31L1025.63,780.5L1028.84,778.31L1033.41,774.69L1039.75,770.56L1045.69,767.06L1048.47,764.1L1050.91,761.69L1052.75,762.25L1055.06,761.85L1057.16,759.81L1058.75,756.13L1058.38,753.69L1056.47,751.1L1058.69,749.53L1069.75,743.75L1076.81,740.44L1081.13,738.69L1102.72,728.6L1110.78,725.5L1122.03,725.5L1124.75,725.88L1126.25,727.6L1128.16,728.47L1130.09,728.5L1128.84,721.84L1128.06,718.63L1124.84,713.59L1123.13,711.78L1122.69,710L1120.22,708.09L1120.09,706L1121.34,704.13L1123.78,702.19L1126.5,700.22L1128.69,697.03L1129.84,694.5L1130.16,692.72L1131.06,689.84L1132.38,687.06L1134.25,685.5L1136.56,683.59L1136.88,681.94L1139.91,678.88L1138.06,677.16L1138.81,675.25L1140.09,672.88L1140.78,670.88L1139.91,668.84L1139.25,666.88L1138.88,665L1138.34,663.09L1139.16,661.41L1139.38,659.66L1139.47,657.91L1139.75,656.19L1138.5,654.56L1136.56,653.41L1135.22,651.44L1134.94,649.69L1135.69,647.84L1135.31,645.84L1136.16,643.97L1137.66,642.19L1137.88,640.38L1139.81,639.97L1140,638.34L1139.06,636.22L1139.28,634.5L1139.13,632.66L1138.53,630.84L1136.81,629.09L1137.41,627.47L1137.72,625.22L1139.84,623.69L1141.5,623.31L1141.66,621.59L1141.5,619.81L1141.69,618.13L1142.78,616.34L1144.44,615.09L1146.22,614.25L1147.19,612.53L1147.53,610.59L1148.19,608.72L1148.25,607L1148.94,605.34L1150.47,603.59L1151.22,601.19L1152.16,599.5L1153.06,597.63L1152.75,595.84L1152.13,594.09L1151.38,592.09L1153.03,590.47L1153.97,588.66L1155.5,586.81L1155.09,585L1153.41,583.69L1151.69,582.72L1151.34,581.06L1151.5,579.19L1153.44,579.13Z" style="fill:rgb(130,132,135);fill-rule:nonzero;"/>
</svg>
