<svg xmlns="http://www.w3.org/2000/svg" viewBox="0 0 354 260.67"><defs><style>.cls-1{fill:#0077b7;}</style></defs><g id="Layer_2" data-name="Layer 2"><g id="Layer_1-2" data-name="Layer 1"><path class="cls-1" d="M243.05,0h5c1.47.11,2.93.2,4.4.35A81.87,81.87,0,0,1,276,6.24a96.75,96.75,0,0,1,22.24,13,2.45,2.45,0,0,0,2.08.51q5.36-.89,10.61-2.18A147.11,147.11,0,0,0,343.44,5c.25-.13.53-.48.81-.2s0,.52-.12.78c-.14.42-.29.83-.45,1.25A58.73,58.73,0,0,1,330.5,27.13a87.83,87.83,0,0,1-15.4,12.3,1.76,1.76,0,0,0-.76.65C328,39,341.12,35.77,354,31.33a.89.89,0,0,1-.32.81,169.08,169.08,0,0,1-11.88,12.94,142.26,142.26,0,0,1-22.63,18.17,2.11,2.11,0,0,0-1.08,2A172,172,0,0,1,317,85.07,196,196,0,0,1,309.9,121a187.18,187.18,0,0,1-22.22,48.28,191.09,191.09,0,0,1-35.33,40.58A201.4,201.4,0,0,1,212,237a212.47,212.47,0,0,1-48.79,17.82,215.91,215.91,0,0,1-44.79,5.67,3.19,3.19,0,0,0-1.15.14h-8.83a6.71,6.71,0,0,0-1-.13c-4.33,0-8.65-.33-13-.67a215.51,215.51,0,0,1-23.19-3.09A237.49,237.49,0,0,1,.56,231.42c-.2-.11-.48-.16-.56-.5a2.28,2.28,0,0,1,1.13-.06c1.52.09,3,.23,4.57.27,5.22.14,10.43.26,15.65.07,6-.21,12-.63,18-1.35a157.7,157.7,0,0,0,45.36-12.23,129.1,129.1,0,0,0,22.35-12.7c.2-.14.61-.23.48-.57s-.45-.15-.69-.17a113.39,113.39,0,0,1-19.06-3.52c-15.25-4.32-27.94-12.38-37.17-25.48a79.22,79.22,0,0,1-8.63-16c-.1-.24-.34-.52-.11-.76s.53,0,.79,0c1.34.28,2.66.6,4,.84a48.89,48.89,0,0,0,25.55-1.72c.29-.11.66-.12.86-.45-.23-.29-.56-.24-.85-.3-2.26-.45-4.51-1-6.72-1.6C50.44,150.84,37.84,142.84,28.62,130,20.81,119.05,17,106.77,16.54,93.4c-.05-1.25,0-1.29,1.18-.81A100.16,100.16,0,0,0,47,99.78a6.24,6.24,0,0,0,2.28.12c0-.25-.19-.32-.32-.41a120.81,120.81,0,0,1-9.9-8A77.75,77.75,0,0,1,23.45,72.59a52.65,52.65,0,0,1-6.87-32.37c1-9.81,4.43-18.88,9-27.56.33-.62.6-.59,1-.11.79.89,1.62,1.76,2.44,2.62A211.55,211.55,0,0,0,54.38,37.76,202.47,202.47,0,0,0,88.13,58.3a219.74,219.74,0,0,0,31.81,12.37,262.4,262.4,0,0,0,38.69,8.53q8.25,1.2,16.54,2c1,.09,1,0,.7-.91a49.45,49.45,0,0,1-2.47-13.4,54.81,54.81,0,0,1,6.06-27.44,67.4,67.4,0,0,1,17.82-22.07,75.41,75.41,0,0,1,42.05-17A25.66,25.66,0,0,0,243.05,0Z"/></g></g></svg>